<svg xmlns="http://www.w3.org/2000/svg" width="256" height="256" viewBox="0 0 256 256">
  <g transform="translate(1.407 1.407) scale(2.81)">
    <path fill="#20a7db" d="M45 90C20.147 90 0 69.853 0 45S20.147 0 45 0s45 20.147 45 45-20.147 45-45 45z"/>
    <path fill="#38454f" d="M72.993 29.572c-2.577-4.418-7.667-6.723-12.688-5.745l-9.684 1.885c-1.856.361-3.739.542-5.621.542s-3.765-.181-5.621-.542l-9.684-1.885c-5.021-.977-10.111 1.327-12.688 5.745-7.057 12.1-8.517 36.823.807 36.823 4.109 0 7.026-1.017 10.487-4.282 5.337-5.074 9.738-7.1 16.7-7.449 6.961.349 11.362 2.375 16.7 7.449 3.461 3.265 6.377 4.282 10.487 4.282 9.324 0 7.864-24.723.807-36.823z"/>
    <circle cx="53.598" cy="41.264" r="3.103" fill="#758bde"/>
    <circle cx="60.332" cy="48.097" r="3.103" fill="#5ad271"/>
    <circle cx="60.332" cy="34.53" r="3.103" fill="#fbc616"/>
    <circle cx="67.065" cy="41.264" r="3.103" fill="#d75a4a"/>
    <path fill="#afb6bb" d="M38.98 38.25h-6.3v-6.3h-6.55v6.3h-6.3v6.55h6.3v6.3h6.55v-6.3h6.3z"/>
  </g>
</svg>
